<?xml version="1.0" encoding="UTF-8"?>
<svg version="1.1" xmlns="http://www.w3.org/2000/svg" width="500" height="500">
<path d="M0 0 C10.81648696 3.84203113 20.14409033 9.60592176 28.70654297 17.21362305 C29.34205078 17.77823242 29.97755859 18.3428418 30.63232422 18.92456055 C47.73828722 35.08229943 53.76810795 56.48411783 54.70654297 79.21362305 C54.85821954 85.21552177 54.86337948 91.21918135 54.8752079 97.22268486 C54.88249644 100.15398243 54.89824449 103.08512414 54.91654968 106.01637268 C54.96849365 114.33820683 55.01705871 122.65994016 55.0324707 130.98193359 C55.04256672 136.102251 55.0719059 141.22215037 55.11379051 146.34230232 C55.12605438 148.28104554 55.13123025 150.21984775 55.12899208 152.15862846 C55.12663118 154.86678644 55.14885584 157.5737432 55.17651367 160.28173828 C55.16991226 161.07097687 55.16331085 161.86021545 55.1565094 162.67337036 C55.26517952 169.1808059 57.28239581 174.25150971 61.41064453 179.29589844 C61.96719727 179.79597412 62.52375 180.2960498 63.09716797 180.8112793 C63.71986572 181.38120605 64.34256348 181.95113281 64.98413086 182.53833008 C65.63502686 183.11180176 66.28592285 183.68527344 66.95654297 184.27612305 C67.63257568 184.8882666 68.3086084 185.50041016 69.00512695 186.13110352 C70.89523127 187.83736859 72.79819818 189.52781945 74.70654297 191.21362305 C75.82996094 192.22102539 75.82996094 192.22102539 76.97607422 193.2487793 C79.95609331 195.89119274 82.99704727 198.45739528 86.05029297 201.0144043 C105.14161436 217.06144759 105.14161436 217.06144759 106.70654297 228.21362305 C106.95743529 236.03491833 105.47437519 242.88265679 100.26416016 248.87158203 C95.71660405 253.46054126 90.82883684 257.27107649 85.58154297 261.02612305 C83.89991274 262.24920103 82.21892603 263.47316427 80.53857422 264.69799805 C79.71953613 265.29290039 78.90049805 265.88780273 78.05664062 266.50073242 C74.77077902 268.89566334 71.50865634 271.31905945 68.26904297 273.77612305 C67.28033203 274.51991211 66.29162109 275.26370117 65.27294922 276.0300293 C60.16182339 280.37876497 56.16169414 285.5587007 55.31454468 292.36141968 C55.30645782 293.48875519 55.29837097 294.6160907 55.29003906 295.77758789 C55.27341721 297.07082977 55.25679535 298.36407166 55.2396698 299.69650269 C55.23619335 301.10585472 55.23297086 302.5152074 55.22998047 303.92456055 C55.21608313 305.39992571 55.20082114 306.87527856 55.1842804 308.35061646 C55.15171399 311.47739078 55.1278603 314.60405938 55.1109314 317.73095703 C55.08394515 322.59844493 55.03390588 327.46551768 54.97924805 332.33276367 C54.90884632 338.72627203 54.84395189 345.11979291 54.78613281 351.51342773 C54.59361967 372.6491722 54.59361967 372.6491722 54.43365479 381.2979126 C54.40774234 382.87817251 54.38886146 384.45856734 54.37786865 386.03900146 C54.24037142 405.7809087 48.72947435 423.06449879 35.70654297 438.21362305 C35.21025391 438.86459961 34.71396484 439.51557617 34.20263672 440.1862793 C22.05823853 455.49613465 2.57111168 463.66840346 -16.29345703 466.21362305 C-23.55345703 466.21362305 -30.81345703 466.21362305 -38.29345703 466.21362305 C-38.62345703 448.72362305 -38.95345703 431.23362305 -39.29345703 413.21362305 C-28.29345703 412.21362305 -28.29345703 412.21362305 -24.69189453 411.8894043 C-16.71482231 410.93091887 -10.06839031 409.01318107 -4.92626953 402.4753418 C-0.67096913 395.47117945 -0.00332232 389.01741317 -0.03808594 381.0559082 C-0.03265526 379.54232727 -0.03265526 379.54232727 -0.02711487 377.99816895 C-0.02023412 375.81129483 -0.01771295 373.6244036 -0.01906204 371.43751907 C-0.02003064 367.96281703 -0.00704199 364.48842154 0.00991821 361.01376343 C0.05606695 351.13558371 0.08075892 341.25743423 0.08740234 331.37915039 C0.09245137 325.32906526 0.11687853 319.27929764 0.15272903 313.22932053 C0.16245486 310.93712659 0.16489894 308.64488855 0.15955734 306.35268021 C0.12414376 290.39707369 0.71624305 275.23369301 8.45654297 260.83862305 C8.79943359 260.17926758 9.14232422 259.51991211 9.49560547 258.84057617 C15.70015509 247.28063974 24.81089939 237.47738543 35.70654297 230.21362305 C32.63288878 226.44839666 29.63998984 223.06397586 25.89404297 219.96362305 C11.21649077 207.2989923 2.36674924 189.4154062 0.70654297 170.21362305 C0.56686385 166.98269089 0.54288738 163.75588941 0.53295898 160.5222168 C0.52627197 159.59901642 0.51958496 158.67581604 0.51269531 157.72463989 C0.49873423 155.73588327 0.48681246 153.74711146 0.47674751 151.7583313 C0.46020529 148.60461858 0.4369651 145.45101873 0.41184998 142.29736328 C0.34142302 133.33623971 0.28096559 124.37507204 0.22973633 115.41381836 C0.19785073 109.91797884 0.15656056 104.42227405 0.10954094 98.92654419 C0.09359013 96.84069243 0.08123688 94.7548098 0.07263374 92.66891479 C0.06040519 89.7474811 0.03622651 86.82636161 0.00952148 83.9050293 C0.00893234 83.05385529 0.0083432 82.20268127 0.00773621 81.32571411 C-0.11263287 71.32884424 -1.66990176 63.73209752 -9.04345703 56.52612305 C-15.66305797 51.81602238 -21.87955175 50.75168224 -29.79345703 50.52612305 C-30.61587891 50.49196289 -31.43830078 50.45780273 -32.28564453 50.42260742 C-34.28780253 50.34112425 -36.29060271 50.27567729 -38.29345703 50.21362305 C-39.29058273 47.22224594 -39.38575529 45.39611312 -39.31518555 42.28320312 C-39.29508926 41.28239212 -39.27499298 40.28158112 -39.25428772 39.2504425 C-39.22725266 38.1722374 -39.20021759 37.09403229 -39.17236328 35.9831543 C-39.14875229 34.87759689 -39.1251413 33.77203949 -39.10081482 32.63298035 C-39.02416007 29.09723122 -38.94014315 25.5617001 -38.85595703 22.02612305 C-38.80273819 19.63095147 -38.74999777 17.23576921 -38.69775391 14.84057617 C-38.56854242 8.96478985 -38.43328385 3.08916582 -38.29345703 -2.78637695 C-28.75484946 -7.55568074 -9.86596095 -3.19317661 0 0 Z " fill="#FD914C" transform="translate(277.29345703125,18.786376953125)"/>
<path d="M0 0 C8.45249137 4.77879371 14.92715974 13.08105077 17.55859375 22.46484375 C19.36193247 32.82207234 18.38690291 41.90016168 13 51 C6.55844402 60.06636324 -1.56537511 65.8167301 -12.60546875 67.76953125 C-23.41434749 68.80986379 -32.03154471 65.77100601 -41 60 C-48.86769446 53.29442679 -53.01065165 44.18881137 -54 34 C-54.39002682 23.33926681 -50.99512662 13.93225174 -43.6875 6.0625 C-31.4297768 -5.05623123 -14.82063024 -7.52793917 0 0 Z " fill="#FD914D" transform="translate(170,299)"/>
<path d="M0 0 C8.35427703 6.02627743 13.5978845 13.30310276 16.3125 23.3125 C17.82163303 34.07274118 15.64982198 44.91334857 9.0625 53.75 C-0.44364254 62.60799646 -9.80433892 66.00140094 -22.6875 66.3125 C-32.10573774 65.74740574 -39.77842417 61.20330719 -46.484375 54.82421875 C-53.69079728 46.60838625 -55.18127662 37.88177268 -54.95703125 27.2734375 C-54.24664166 16.83379912 -50.47668152 9.25999341 -42.6875 2.3125 C-30.10373322 -7.76967458 -13.58767739 -8.45199593 0 0 Z " fill="#FDDE5A" transform="translate(171.6875,138.6875)"/>
<path d="M0 0 C0 0.33 0 0.66 0 1 C-2.31 1 -4.62 1 -7 1 C-7 17.5 -7 34 -7 51 C-1.06 50.67 4.88 50.34 11 50 C12.65 50.66 14.3 51.32 16 52 C16.99 52 17.98 52 19 52 C20.04892238 53.63631892 21.04906703 55.30485863 22 57 C22.99 57.495 22.99 57.495 24 58 C24 58.66 24 59.32 24 60 C24.99 59.67 25.98 59.34 27 59 C28.33332095 61.6666419 27.67102033 63.16680303 27 66 C26.278125 65.2575 25.55625 64.515 24.8125 63.75 C17.07095668 56.18049098 10.13609811 53.61564612 -0.5 53.3125 C-1.32242188 53.27833984 -2.14484375 53.24417969 -2.9921875 53.20898438 C-4.9943455 53.1275012 -6.99714568 53.06205425 -9 53 C-9.9971257 50.00862289 -10.09229826 48.18249007 -10.02172852 45.06958008 C-10.00163223 44.06876907 -9.98153595 43.06795807 -9.96083069 42.03681946 C-9.93379562 40.95861435 -9.90676056 39.88040924 -9.87890625 38.76953125 C-9.85529526 37.66397385 -9.83168427 36.55841644 -9.80735779 35.4193573 C-9.73070304 31.88360817 -9.64668612 28.34807705 -9.5625 24.8125 C-9.50928115 22.41732842 -9.45654074 20.02214617 -9.40429688 17.62695312 C-9.27508539 11.7511668 -9.13982681 5.87554277 -9 0 C-5.93109813 -1.53445094 -3.29905734 -0.54984289 0 0 Z " fill="#E1946C" transform="translate(248,16)"/>
<path d="M0 0 C0 0.66 0 1.32 0 2 C-1.65 2 -3.3 2 -5 2 C-5 18.5 -5 35 -5 52 C-1.1225 51.896875 2.755 51.79375 6.75 51.6875 C7.94592773 51.66260498 9.14185547 51.63770996 10.37402344 51.61206055 C17.09182368 51.38626599 23.09718936 50.4428621 29.54785156 48.53442383 C32 48 32 48 35 49 C32.98135603 49.65264429 30.95996273 50.29678746 28.9375 50.9375 C27.24947266 51.47697266 27.24947266 51.47697266 25.52734375 52.02734375 C14.52285483 55.06180415 4.8864173 54 -7 54 C-7.33 36.51 -7.66 19.02 -8 1 C-3 0 -3 0 0 0 Z " fill="#E0946E" transform="translate(246,431)"/>
<path d="M0 0 C1.36451081 0.95702038 2.70810219 1.9470148 4 3 C1.6875 4.5625 1.6875 4.5625 -1 6 C-1.99 5.67 -2.98 5.34 -4 5 C-3.67 4.34 -3.34 3.68 -3 3 C-6.19058843 -0.19058843 -10.82399714 -0.29642477 -15.0625 -0.3125 C-16.59583984 -0.33763672 -16.59583984 -0.33763672 -18.16015625 -0.36328125 C-21.32163483 0.04114448 -22.6711864 0.88340442 -25 3 C-25.66 2.67 -26.32 2.34 -27 2 C-27.33 2.99 -27.66 3.98 -28 5 C-30.31 5 -32.62 5 -35 5 C-35.268125 5.61875 -35.53625 6.2375 -35.8125 6.875 C-37 9 -37 9 -40 11 C-41.21284876 14.05429073 -41.21284876 14.05429073 -42 17 C-43.32 16.67 -44.64 16.34 -46 16 C-42.14934564 7.77687364 -35.96512024 2.43494252 -27.6171875 -0.97265625 C-18.17575661 -4.15432967 -9.20926852 -3.92605658 0 0 Z " fill="#F4DE7A" transform="translate(167,136)"/>
<path d="M0 0 C5.03170215 4.29791225 10.02518322 8.63645561 15 13 C16.49984117 14.3126815 17.99983611 15.62518732 19.5 16.9375 C20.66666667 17.95833333 21.83333333 18.97916667 23 20 C19.66103832 20 18.59519111 19.40577375 15.8125 17.6875 C15.09707031 17.25824219 14.38164062 16.82898438 13.64453125 16.38671875 C13.10183594 15.92910156 12.55914062 15.47148437 12 15 C12 14.01 12 13.02 12 12 C9.69 11.67 7.38 11.34 5 11 C5 10.01 5 9.02 5 8 C3.35 7.67 1.7 7.34 0 7 C0 4.69 0 2.38 0 0 Z " fill="#EE925B" transform="translate(336,196)"/>
<path d="M0 0 C4.03176602 3.53345786 5.08528868 7.83790823 6 13 C6.04336158 16.73873194 5.8425554 20.35103826 5 24 C4.34 24.66 3.68 25.32 3 26 C3.33 23.69 3.66 21.38 4 19 C3.34 18.67 2.68 18.34 2 18 C1.375 15.4375 1.375 15.4375 1 13 C1.66 12.67 2.32 12.34 3 12 C2.525625 11.5875 2.05125 11.175 1.5625 10.75 C-0.23565672 8.73606447 -0.68637985 7.66577127 -1 5 C-0.5625 2.25 -0.5625 2.25 0 0 Z " fill="#ED935F" transform="translate(378,234)"/>
<path d="M0 0 C0.93423645 3.01031744 1.04449911 3.86650268 0 7 C-1.24083366 16.91518005 -1.22303879 25.38551142 2 35 C3.65 35 5.3 35 7 35 C6.01 35.495 6.01 35.495 5 36 C4.34786708 38.02463255 4.34786708 38.02463255 4 40 C3.0115904 38.44333045 2.03464918 36.87937574 1.0625 35.3125 C0.51722656 34.44238281 -0.02804688 33.57226562 -0.58984375 32.67578125 C-4.91738597 24.46423992 -4.11973506 12.71256859 -1.5 4.0625 C-1.02165118 2.7005346 -0.53066164 1.34244761 0 0 Z " fill="#EBDB82" transform="translate(120,152)"/>
<path d="M0 0 C0.928125 0.33 1.85625 0.66 2.8125 1 C5.92029291 2.14967004 5.92029291 2.14967004 9 2 C10.04892238 3.63631892 11.04906703 5.30485863 12 7 C12.66 7.33 13.32 7.66 14 8 C14 8.66 14 9.32 14 10 C14.99 9.67 15.98 9.34 17 9 C18.33332095 11.6666419 17.67102033 13.16680303 17 16 C16.278125 15.2575 15.55625 14.515 14.8125 13.75 C10.23020708 9.26953581 5.58476576 6.06614591 0 3 C0 2.01 0 1.02 0 0 Z " fill="#EF925F" transform="translate(258,66)"/>
<path d="M0 0 C0 0.33 0 0.66 0 1 C-2.31 1.33 -4.62 1.66 -7 2 C-7 1.34 -7 0.68 -7 0 C-20.1358271 -0.34884922 -20.1358271 -0.34884922 -33 2 C-31.73183614 -0.53632772 -30.93716737 -0.66440085 -28.3125 -1.625 C-18.78281562 -4.6039763 -9.11983667 -3.77372552 0 0 Z " fill="#E8A27C" transform="translate(168,298)"/>
<path d="M0 0 C1.88801974 2.83202961 2.96101651 5.26025619 4.125 8.4375 C4.47820312 9.38496094 4.83140625 10.33242187 5.1953125 11.30859375 C6 14 6 14 6 18 C5.34 18 4.68 18 4 18 C3.62875 16.329375 3.62875 16.329375 3.25 14.625 C2.32862925 10.58116476 2.32862925 10.58116476 -2 9 C-1.34 6.03 -0.68 3.06 0 0 Z " fill="#EE9463" transform="translate(323,60)"/>
<path d="M0 0 C6.6680223 7.33482452 6.27906109 14.558433 6 24 C5.67 24 5.34 24 5 24 C4.92652344 23.09121094 4.92652344 23.09121094 4.8515625 22.1640625 C4.3017522 16.00239536 3.32390951 10.04114049 2 4 C1.01 4.33 0.02 4.66 -1 5 C-1 1 -1 1 0 0 Z " fill="#EF926D" transform="translate(182,312)"/>
<path d="M0 0 C6.39895163 2.90861438 11.58246742 6.53555185 17 11 C15 12 15 12 11 12 C11 10.68 11 9.36 11 8 C9.35 8 7.7 8 6 8 C5.7525 7.360625 5.505 6.72125 5.25 6.0625 C4.18437567 3.81258459 4.18437567 3.81258459 1.875 3.25 C0.946875 3.12625 0.946875 3.12625 0 3 C0 2.01 0 1.02 0 0 Z " fill="#E5966C" transform="translate(288,24)"/>
<path d="M0 0 C5.26053037 -0.31563182 8.44573816 0.33409063 13 3 C10.6875 5.0625 10.6875 5.0625 8 7 C7.01 6.67 6.02 6.34 5 6 C5.33 5.34 5.66 4.68 6 4 C4.34822227 2.34822227 2.15144042 1.82747709 0 1 C0 0.67 0 0.34 0 0 Z " fill="#F8E170" transform="translate(158,135)"/>
<path d="M0 0 C2.0625 0.4375 2.0625 0.4375 4 1 C2.58330822 6.19453651 -0.92108191 9.66182883 -5 13 C-5.66 13 -6.32 13 -7 13 C-7 12.01 -7 11.02 -7 10 C-6.01 9.67 -5.02 9.34 -4 9 C-3.67 8.01 -3.34 7.02 -3 6 C-2.01 5.67 -1.02 5.34 0 5 C0.33 4.01 0.66 3.02 1 2 C0.34 1.67 -0.32 1.34 -1 1 C-0.67 0.67 -0.34 0.34 0 0 Z " fill="#E89468" transform="translate(377,260)"/>
<path d="M0 0 C0 4.96796764 -2.2152933 8.13682263 -5.5 11.75 C-8 14 -8 14 -11 16 C-9.6020749 11.93064734 -7.66821145 9.06055399 -4.9375 5.75 C-4.22464844 4.87859375 -3.51179688 4.0071875 -2.77734375 3.109375 C-1.88187356 2.04661917 -0.98267919 0.98267919 0 0 Z " fill="#E49A72" transform="translate(299,261)"/>
<path d="M0 0 C1.65 0 3.3 0 5 0 C6 6.625 6 6.625 6 10 C4.99421411 8.71283353 3.99553202 7.42011342 3 6.125 C2.443125 5.40570313 1.88625 4.68640625 1.3125 3.9453125 C0 2 0 2 0 0 Z " fill="#E89566" transform="translate(121,347)"/>
<path d="M0 0 C3.9205539 5.88083085 2.84833083 11.27860956 2 18 C1.67 18 1.34 18 1 18 C0.67 12.06 0.34 6.12 0 0 Z " fill="#F0DD85" transform="translate(185,157)"/>
<path d="M0 0 C4.82675589 2.41337795 7.69984002 5.86062408 11 10 C9.02 10 7.04 10 5 10 C4.87625 9.195625 4.7525 8.39125 4.625 7.5625 C4.41875 6.716875 4.2125 5.87125 4 5 C3.34 4.67 2.68 4.34 2 4 C2 3.34 2 2.68 2 2 C1.34 2 0.68 2 0 2 C0 1.34 0 0.68 0 0 Z " fill="#EEDC7D" transform="translate(171,139)"/>
<path d="M0 0 C4.63720719 3.27530896 8.68542782 6.30435607 12 11 C10.65608877 10.35492261 9.32646156 9.6802367 8 9 C7.11441406 8.58041016 7.11441406 8.58041016 6.2109375 8.15234375 C1.20782072 5.60960744 1.20782072 5.60960744 0.0625 2.25 C0.041875 1.5075 0.02125 0.765 0 0 Z " fill="#E1966F" transform="translate(347,206)"/>
<path d="M0 0 C0.66 0 1.32 0 2 0 C2 0.66 2 1.32 2 2 C2.66 2.33 3.32 2.66 4 3 C4 5.97 4 8.94 4 12 C1.21366885 7.82050327 0 5.06624674 0 0 Z " fill="#ED976A" transform="translate(281,201)"/>
<path d="M0 0 C1.32 0.33 2.64 0.66 4 1 C0.7 3.31 -2.6 5.62 -6 8 C-6.33 7.01 -6.66 6.02 -7 5 C-5.68 4.67 -4.36 4.34 -3 4 C-3 3.34 -3 2.68 -3 2 C-2.01 2 -1.02 2 0 2 C0 1.34 0 0.68 0 0 Z " fill="#E5946C" transform="translate(348,287)"/>
<path d="M0 0 C0 1.65 0 3.3 0 5 C-2.31 4.67 -4.62 4.34 -7 4 C-6.01 3.67 -5.02 3.34 -4 3 C-4 2.34 -4 1.68 -4 1 C-2 0 -2 0 0 0 Z " fill="#F4915A" transform="translate(145,360)"/>
<path d="M0 0 C0.66 0.33 1.32 0.66 2 1 C1.02471263 2.33617352 0.04466681 3.6688751 -0.9375 5 C-1.48277344 5.7425 -2.02804687 6.485 -2.58984375 7.25 C-3.28787109 8.11625 -3.28787109 8.11625 -4 9 C-4.33 9 -4.66 9 -5 9 C-5 7.02 -5 5.04 -5 3 C-3.35 2.67 -1.7 2.34 0 2 C0 1.34 0 0.68 0 0 Z " fill="#E79369" transform="translate(315,451)"/>
<path d="M0 0 C0.99 0 1.98 0 3 0 C1.68775452 3.93673644 0.08089673 6.22719294 -3 9 C-2.01 6.03 -1.02 3.06 0 0 Z " fill="#E99564" transform="translate(181,346)"/>
<path d="M0 0 C1.32 0.33 2.64 0.66 4 1 C2.515 3.475 2.515 3.475 1 6 C0.01 5.01 -0.98 4.02 -2 3 C-1.34 2.01 -0.68 1.02 0 0 Z " fill="#F0985B" transform="translate(333,299)"/>
<path d="M0 0 C0.78375 0.04125 1.5675 0.0825 2.375 0.125 C-2.25 5 -2.25 5 -5.625 6.125 C-4.86443086 2.32215429 -4.27658992 0.20364714 0 0 Z " fill="#E5946A" transform="translate(367.625,272.875)"/>
<path d="M0 0 C0.66 0.33 1.32 0.66 2 1 C1.6875 2.9375 1.6875 2.9375 1 5 C0.01 5.33 -0.98 5.66 -2 6 C-2.99 5.34 -3.98 4.68 -5 4 C-3.35 2.68 -1.7 1.36 0 0 Z " fill="#ED9560" transform="translate(313,249)"/>
<path d="M0 0 C3.3 0.99 6.6 1.98 10 3 C10 3.33 10 3.66 10 4 C7.69 4.33 5.38 4.66 3 5 C3 4.34 3 3.68 3 3 C2.01 2.67 1.02 2.34 0 2 C0 1.34 0 0.68 0 0 Z " fill="#F3A074" transform="translate(158,295)"/>
<path d="M0 0 C2.31 1.98 4.62 3.96 7 6 C4.16032769 6 1.76264289 5.59732819 -1 5 C-0.67 3.35 -0.34 1.7 0 0 Z " fill="#E5965F" transform="translate(371,227)"/>
<path d="M0 0 C0.66 0.33 1.32 0.66 2 1 C1.34 2.98 0.68 4.96 0 7 C-1.32 5.68 -2.64 4.36 -4 3 C-2.68 2.67 -1.36 2.34 0 2 C0 1.34 0 0.68 0 0 Z " fill="#EF9764" transform="translate(295,222)"/>
<path d="M0 0 C2.97 0.495 2.97 0.495 6 1 C4.71937515 2.7074998 3.38232443 4.37373596 2 6 C1.34 6 0.68 6 0 6 C0 4.02 0 2.04 0 0 Z " fill="#E29263" transform="translate(304,459)"/>
<path d="M0 0 C2.31 0.66 4.62 1.32 7 2 C7 3.32 7 4.64 7 6 C3.63279613 4.60667426 2.0140476 3.0210714 0 0 Z " fill="#EDD977" transform="translate(125,192)"/>
<path d="M0 0 C2.96404505 2.80804268 5.44499019 5.18315774 7 9 C5 7.625 5 7.625 3 6 C3 5.34 3 4.68 3 4 C2.01 4 1.02 4 0 4 C0 2.68 0 1.36 0 0 Z " fill="#E1966E" transform="translate(309,40)"/>
<path d="M0 0 C0.99 0 1.98 0 3 0 C2.67 1.32 2.34 2.64 2 4 C0.68 4.33 -0.64 4.66 -2 5 C-1.125 1.125 -1.125 1.125 0 0 Z " fill="#F6965D" transform="translate(292,470)"/>
<path d="M0 0 C0.99 0.33 1.98 0.66 3 1 C0.36 2.98 -2.28 4.96 -5 7 C-4.67 5.68 -4.34 4.36 -4 3 C-3.01 2.67 -2.02 2.34 -1 2 C-0.67 1.34 -0.34 0.68 0 0 Z " fill="#DF996F" transform="translate(301,465)"/>
<path d="M0 0 C-1.28965176 1.37562854 -2.62689293 2.70766393 -4 4 C-4.66 4 -5.32 4 -6 4 C-6.33 2.68 -6.66 1.36 -7 0 C-2.25 -1.125 -2.25 -1.125 0 0 Z " fill="#E99767" transform="translate(178,356)"/>
</svg>
